<svg viewBox="0 0 1024 1024" xmlns="http://www.w3.org/2000/svg"><path d="M768.25 236.813c-61.865-67.375-150.36-109.45-248.68-109.45-5.917 0-11.798.15-17.64.452l.82-.034H241.688c-14.132.008-25.587 11.462-25.594 25.594v716.814c.005 14.14 11.457 25.603 25.592 25.625H502.75c5.036.27 10.932.422 16.863.422 98.315 0 186.798-42.092 248.413-109.237l.224-.247c59.245-69.604 95.28-160.55 95.28-259.916 0-5.294-.1-10.563-.304-15.808l.023.755c.178-4.477.28-9.733.28-15.012 0-99.377-36.037-190.337-95.754-260.525l.473.57zm-471.28-28.126h204.78c5.037-.352 10.917-.552 16.843-.552 74.75 0 142.056 31.88 189.06 82.784l.16.173c45.957 55.52 73.837 127.46 73.837 205.912 0 5.197-.122 10.365-.364 15.5l.027-.726c.21 4.363.33 9.477.33 14.62 0 78.57-28.078 150.585-74.75 206.553l.42-.517c-47.184 51.077-114.504 82.953-189.27 82.953-5.732 0-11.42-.188-17.06-.557l.767.04H296.97z"/></svg>